HIERARCHY
ROOT Hips
{
  OFFSET 52.3943 86.8031 6.04465
  CHANNELS 6 Xposition Yposition Zposition Zrotation Xrotation Yrotation
  JOINT spine
  {
    OFFSET 0 6.84637 0.3937
    CHANNELS 3 Zrotation Xrotation Yrotation
    JOINT spine1
    {
      OFFSET 0 9.49621 0
      CHANNELS 3 Zrotation Xrotation Yrotation
      JOINT spine2
      {
        OFFSET 0 9.09909 0
        CHANNELS 3 Zrotation Xrotation Yrotation
        JOINT Neck
        {
          OFFSET 0 23.3612 1.11378
          CHANNELS 3 Zrotation Xrotation Yrotation
          JOINT Head
          {
            OFFSET 0 7.05802 0
            CHANNELS 3 Zrotation Xrotation Yrotation
            End Site
            {
              OFFSET 0 17.0844 -5.63419
            }
          }
        }
        JOINT RightShoulder
        {
          OFFSET -3.83136 9.82631 -0.533491
          CHANNELS 3 Zrotation Xrotation Yrotation
          JOINT RightArm
          {
            OFFSET 0 12.8881 0
            CHANNELS 3 Zrotation Xrotation Yrotation
            JOINT RightArmRoll
            {
              OFFSET 0 6.50617 0
              CHANNELS 3 Zrotation Xrotation Yrotation
              JOINT RightForeArm
              {
                OFFSET 0 18.9501 0
                CHANNELS 3 Zrotation Xrotation Yrotation
                JOINT RightForeArmRoll
                {
                  OFFSET 0 7.30092 0
                  CHANNELS 3 Zrotation Xrotation Yrotation
                  JOINT RightHand
                  {
                    OFFSET 0 14.6514 0
                    CHANNELS 3 Zrotation Xrotation Yrotation
                    End Site
                    {
                      OFFSET 0 0 0
                    }
                  }
                }
              }
            }
          }
        }
        JOINT LeftShoulder
        {
          OFFSET 3.83136 9.82631 -0.533491
          CHANNELS 3 Zrotation Xrotation Yrotation
          JOINT LeftArm
          {
            OFFSET 0 12.8881 0
            CHANNELS 3 Zrotation Xrotation Yrotation
            JOINT LeftArmRoll
            {
              OFFSET 0 6.50617 0
              CHANNELS 3 Zrotation Xrotation Yrotation
              JOINT LeftForeArm
              {
                OFFSET 0 18.9501 0
                CHANNELS 3 Zrotation Xrotation Yrotation
                JOINT LeftForeArmRoll
                {
                  OFFSET 0 7.30092 0
                  CHANNELS 3 Zrotation Xrotation Yrotation
                  JOINT LeftHand
                  {
                    OFFSET 0 14.6514 0
                    CHANNELS 3 Zrotation Xrotation Yrotation
                    End Site
                    {
                      OFFSET 0 0 0
                    }
                  }
                }
              }
            }
          }
        }
      }
    }
  }
  JOINT RightUpLeg
  {
    OFFSET -6.06837 -1.11278 -0.933477
    CHANNELS 3 Zrotation Xrotation Yrotation
    JOINT RightUpLegRoll
    {
      OFFSET 0 17.1796 0
      CHANNELS 3 Zrotation Xrotation Yrotation
      JOINT RightLeg
      {
        OFFSET 0 -21.2743 0
        CHANNELS 3 Zrotation Xrotation Yrotation
        JOINT RightLegRoll
        {
          OFFSET 0 21.3439 0
          CHANNELS 3 Zrotation Xrotation Yrotation
          JOINT RightFoot
          {
            OFFSET 0 17.7652 0
            CHANNELS 3 Zrotation Xrotation Yrotation
            JOINT RightToeBase
            {
              OFFSET 0 14.8508 0
              CHANNELS 3 Zrotation Xrotation Yrotation
              End Site
              {
                OFFSET 0.0062947 7.19213 -0.829005
              }
            }
          }
        }
      }
    }
  }
  JOINT LeftUpLeg
  {
    OFFSET 6.06837 -1.11278 -0.933477
    CHANNELS 3 Zrotation Xrotation Yrotation
    JOINT LeftUpLegRoll
    {
      OFFSET 0 17.1797 0
      CHANNELS 3 Zrotation Xrotation Yrotation
      JOINT LeftLeg
      {
        OFFSET 0 21.2742 0
        CHANNELS 3 Zrotation Xrotation Yrotation
        JOINT LeftLegRoll
        {
          OFFSET 0 21.5412 0
          CHANNELS 3 Zrotation Xrotation Yrotation
          JOINT LeftFoot
          {
            OFFSET 0 17.5679 0
            CHANNELS 3 Zrotation Xrotation Yrotation
            JOINT LeftToeBase
            {
              OFFSET 0 14.8508 0
              CHANNELS 3 Zrotation Xrotation Yrotation
              End Site
              {
                OFFSET -0.0282102 7.19213 -0.829005
              }
            }
          }
        }
      }
    }
  }
}
MOTION
Frames: 4
Frame Time: 0.00208333
46.7044 86.4031 4.713 3.95491 2.41781 10.6726 1.82497 -0.0967768 0.844656 3.65015 3.83027 1.46773 3.63783 5.4732 1.408 -23.1215 0.992484 10.0498 10.5916 15.5549 4.98582 33.6309 -1.21556 2.5573 -175.296 39.6498 -101.715 -3.84102e-006 1.90754e-005 -3.48235e-006 30.5383 50.6249 -11.5835 -9.25019e-007 1.70252e-005 -2.99998 8.02924 -4.9508 0.697119 -72.0856 -8.52343 5.54419 -79.4363 60.2994 5.8741 -6.49947e-007 1.99133e-006 6.02796e-006 -33.2512 21.3 5.03338 9.22322e-006 -5.31849e-006 3 -8.03061 -4.95164 -0.697811 176.428 20.4921 0.68343 180 7.01528e-015 178.844 174.519 25.8036 -178.911 -3.65305e-006 2.65761e-006 0.80183 -26.59 70.4903 22.3119 8.13649 25.2326 -3.48774 -179.012 15.1706 1.84561 4.54188e-006 -4.6773e-006 -0.799325 -1.78974 -19.5358 0.549368 -3.51011e-006 -1.13456e-006 -0.111777 14.9029 69.526 -20.6826 -8.1365 25.2327 3.48774 
46.6998 86.3954 4.712 3.9471 2.45071 10.7063 1.83385 -0.105149 0.845145 3.66802 3.8136 1.46691 3.65572 5.45651 1.40688 -23.029 1.01975 10.0911 10.5096 15.5508 5.04611 33.7077 -1.24712 2.51505 -175.508 39.7499 -101.445 -3.84102e-006 1.90754e-005 -3.48235e-006 30.3855 50.6072 -11.5142 -9.25019e-007 1.70252e-005 -2.99998 8.02924 -4.9508 0.697119 -72.0086 -8.51242 5.53736 -79.5 60.1961 5.91801 -6.49947e-007 1.99133e-006 6.02796e-006 -33.2232 21.3964 5.06184 9.22322e-006 -5.31849e-006 3 -8.03061 -4.95164 -0.697811 176.419 20.5261 0.692753 180 7.01528e-015 178.844 174.509 25.8137 -178.905 -3.65305e-006 2.65761e-006 0.80136 -26.5906 70.4915 22.312 8.13649 25.2326 -3.48774 -178.994 15.2143 1.81688 4.54188e-006 -4.6773e-006 -0.799275 -1.8155 -19.5507 0.541044 -3.51011e-006 -1.13456e-006 -0.110368 14.9159 69.5264 -20.6821 -8.1365 25.2327 3.48774 
46.7034 86.3977 4.71559 3.93909 2.48373 10.7398 1.84275 -0.113474 0.845483 3.6859 3.79702 1.46575 3.67363 5.43991 1.40541 -22.9386 1.04612 10.133 10.43 15.5471 5.10664 33.7832 -1.27732 2.47416 -175.719 39.8466 -101.174 -3.84102e-006 1.90754e-005 -3.48235e-006 30.2345 50.5853 -11.4446 -9.25019e-007 1.70252e-005 -2.99998 8.02924 -4.9508 0.697119 -71.9324 -8.50182 5.53077 -79.5595 60.0944 5.95874 -6.49947e-007 1.99133e-006 6.02796e-006 -33.1963 21.4915 5.0903 9.22322e-006 -5.31849e-006 3 -8.03061 -4.95164 -0.697811 176.409 20.5603 0.701912 180 7.01528e-015 178.843 174.5 25.8237 -178.9 -3.65305e-006 2.65761e-006 0.800917 -26.5914 70.4926 22.312 8.13649 25.2326 -3.48774 -178.975 15.2581 1.78805 4.54188e-006 -4.6773e-006 -0.799199 -1.84099 -19.5657 0.532846 -3.51011e-006 -1.13456e-006 -0.108911 14.9284 69.5269 -20.6817 -8.1365 25.2327 3.48774 
46.7152 86.397 4.7161 3.93093 2.51682 10.7732 1.85165 -0.121767 0.845715 3.70381 3.7805 1.46436 3.69155 5.42337 1.40371 -22.8497 1.07187 10.1755 10.3521 15.5435 5.16734 33.8577 -1.30658 2.43422 -175.929 39.9404 -100.901 -3.84102e-006 1.90754e-005 -3.48235e-006 30.0849 50.5605 -11.3748 -9.25019e-007 1.70252e-005 -2.99998 8.02924 -4.9508 0.697119 -71.8568 -8.4915 5.52436 -79.6161 59.9936 5.99719 -6.49947e-007 1.99133e-006 6.02796e-006 -33.1702 21.5857 5.11877 9.22322e-006 -5.31849e-006 3 -8.03061 -4.95164 -0.697811 176.4 20.5947 0.710959 180 7.01528e-015 178.843 174.49 25.8336 -178.894 -3.65305e-006 2.65761e-006 0.800493 -26.5922 70.4937 22.3119 8.13649 25.2326 -3.48774 -178.956 15.302 1.75916 4.54188e-006 -4.6773e-006 -0.799106 -1.86628 -19.5809 0.524735 -3.51011e-006 -1.13456e-006 -0.10742 14.9404 69.5276 -20.6813 -8.1365 25.2327 3.48774 
